# xmcd
#
# Track frame offsets:
#	183
#	14008
#	28648
#	44458
#	55505
#	68553
#	81405
#	93155
#	105618
#	118950
#	130568
#	143970
#	154928
#	169695
#	182303
#	196095
#	206378
#	213650
#	224218
#	236665
#	249945
#	281070
#	294930
#	309945
#	320598
#
# Disc length: 4442 seconds
#
# Revision: 2
# Processed by: cddbd v1.4PL0 Copyright (c) Steve Scherf et al.
# Submitted via: audiograbber 1.81.03
#
DISCID=69115819
DTITLE=Various Artist - 25 Blues Evergreens [CD 3]
DYEAR=1991
DGENRE=Blues
TTITLE0=BB King - Paying The Cost To Be The Boss
TTITLE1=John Mayall - Why Worry
TTITLE2=Lightning Hopkins - Coffee For Mama
TTITLE3=Howlin' Wolf - You'll Be Mine
TTITLE4=Elmore James - Dust My Broom
TTITLE5=Muddy Waters - I Just Want To Make Love To You
TTITLE6=Little Walter - My Babe
TTITLE7=John Lee Hooker - Hobo Blues
TTITLE8=Sonny Boy Williamson - Sad To Be Alone
TTITLE9=Eric Clapton - Freight Loader
TTITLE10=Howlin' Wolf - Tail Dragger
TTITLE11=Elmore James - Coming Home
TTITLE12=BB King - How Blue Can You Get
TTITLE13=John Lee Hooker - Trouble Blues
TTITLE14=Muddy Waters - I'm Ready
TTITLE15=Little Walter - Hate To See You Go
TTITLE16=Sonny Boy Williamson - I Wonder Why
TTITLE17=Elmore James - Done Somebody Wrong
TTITLE18=Howlin' Wolf - Goin' Back Home
TTITLE19=John Lee Hooker - I Love You Baby
TTITLE20=BB King - Outside Help
TTITLE21=Little Walter - Take Me Back
TTITLE22=Muddy Waters - Walkin'  Thru The Park
TTITLE23=Elmore James - Can't Stop Lovin'
TTITLE24=Sonny Boy Williamson - All My Love In Vain
EXTD=YEAR: 1991 ID3G: 0\nrevised by The Count\n                 The Netherland
EXTD=s
EXTT0=
EXTT1=
EXTT2=
EXTT3=
EXTT4=
EXTT5=
EXTT6=
EXTT7=
EXTT8=
EXTT9=
EXTT10=
EXTT11=
EXTT12=
EXTT13=
EXTT14=
EXTT15=
EXTT16=
EXTT17=
EXTT18=
EXTT19=
EXTT20=
EXTT21=
EXTT22=
EXTT23=
EXTT24=
PLAYORDER=
